<?xml version="1.0" encoding="UTF-8" standalone="no"?>
<!DOCTYPE svg PUBLIC "-//W3C//DTD SVG 1.1//EN"
 "http://www.w3.org/Graphics/SVG/1.1/DTD/svg11.dtd">
<!-- Generated by graphviz version 2.47.0 (20210316.0004)
 -->
<!-- Title: dbml Pages: 1 -->
<svg width="1315pt" height="1185pt"
 viewBox="0.00 0.00 1315.38 1185.49" xmlns="http://www.w3.org/2000/svg" xmlns:xlink="http://www.w3.org/1999/xlink">
<g id="graph0" class="graph" transform="scale(1 1) rotate(0) translate(4 1181.49)">
<title>dbml</title>
<!-- user_role -->
<g id="user_role" class="node">
<title>user_role</title>
<ellipse fill="none" stroke="black" stroke-width="0" cx="1102.32" cy="-214.96" rx="205.12" ry="214.92"/>
<polygon fill="#29235c" stroke="transparent" points="959.32,-304.96 959.32,-364.96 1245.32,-364.96 1245.32,-304.96 959.32,-304.96"/>
<polygon fill="none" stroke="#29235c" points="959.32,-304.96 959.32,-364.96 1245.32,-364.96 1245.32,-304.96 959.32,-304.96"/>
<text text-anchor="start" x="973.39" y="-326.16" font-family="Helvetica,sans-Serif" font-weight="bold" font-size="32.00" fill="#ffffff"> &#160;&#160;&#160;&#160;&#160;&#160;user_role &#160;&#160;&#160;&#160;&#160;&#160;</text>
<polygon fill="#e7e2dd" stroke="transparent" points="959.32,-244.96 959.32,-304.96 1245.32,-304.96 1245.32,-244.96 959.32,-244.96"/>
<polygon fill="none" stroke="#29235c" points="959.32,-244.96 959.32,-304.96 1245.32,-304.96 1245.32,-244.96 959.32,-244.96"/>
<text text-anchor="start" x="969.85" y="-266.16" font-family="Helvetica,sans-Serif" font-style="italic" font-size="32.00" fill="#1d71b8"> &#160;&#160;&#160;administrador &#160;&#160;&#160;</text>
<polygon fill="#e7e2dd" stroke="transparent" points="959.32,-184.96 959.32,-244.96 1245.32,-244.96 1245.32,-184.96 959.32,-184.96"/>
<polygon fill="none" stroke="#29235c" points="959.32,-184.96 959.32,-244.96 1245.32,-244.96 1245.32,-184.96 959.32,-184.96"/>
<text text-anchor="start" x="990.28" y="-206.16" font-family="Helvetica,sans-Serif" font-style="italic" font-size="32.00" fill="#1d71b8"> &#160;&#160;&#160;bioanalista &#160;&#160;&#160;</text>
<polygon fill="#e7e2dd" stroke="transparent" points="959.32,-124.96 959.32,-184.96 1245.32,-184.96 1245.32,-124.96 959.32,-124.96"/>
<polygon fill="none" stroke="#29235c" points="959.32,-124.96 959.32,-184.96 1245.32,-184.96 1245.32,-124.96 959.32,-124.96"/>
<text text-anchor="start" x="1016.09" y="-146.16" font-family="Helvetica,sans-Serif" font-style="italic" font-size="32.00" fill="#1d71b8"> &#160;&#160;&#160;auxiliar &#160;&#160;&#160;</text>
<polygon fill="#e7e2dd" stroke="transparent" points="959.32,-64.96 959.32,-124.96 1245.32,-124.96 1245.32,-64.96 959.32,-64.96"/>
<polygon fill="none" stroke="#29235c" points="959.32,-64.96 959.32,-124.96 1245.32,-124.96 1245.32,-64.96 959.32,-64.96"/>
<text text-anchor="start" x="996.52" y="-86.16" font-family="Helvetica,sans-Serif" font-style="italic" font-size="32.00" fill="#1d71b8"> &#160;&#160;&#160;secretaria &#160;&#160;&#160;</text>
<polygon fill="none" stroke="#29235c" stroke-width="2" points="958.32,-63.96 958.32,-365.96 1246.32,-365.96 1246.32,-63.96 958.32,-63.96"/>
</g>
<!-- session -->
<g id="session" class="node">
<title>session</title>
<ellipse fill="none" stroke="black" stroke-width="0" cx="430.63" cy="-1004.96" rx="430.76" ry="172.57"/>
<polygon fill="#1d71b8" stroke="transparent" points="128.63,-1064.96 128.63,-1124.96 733.63,-1124.96 733.63,-1064.96 128.63,-1064.96"/>
<polygon fill="none" stroke="#29235c" points="128.63,-1064.96 128.63,-1124.96 733.63,-1124.96 733.63,-1064.96 128.63,-1064.96"/>
<text text-anchor="start" x="314.64" y="-1086.16" font-family="Helvetica,sans-Serif" font-weight="bold" font-size="32.00" fill="#ffffff"> &#160;&#160;&#160;&#160;&#160;&#160;session &#160;&#160;&#160;&#160;&#160;&#160;</text>
<polygon fill="#e7e2dd" stroke="transparent" points="128.63,-1004.96 128.63,-1064.96 733.63,-1064.96 733.63,-1004.96 128.63,-1004.96"/>
<polygon fill="none" stroke="#29235c" points="128.63,-1004.96 128.63,-1064.96 733.63,-1064.96 733.63,-1004.96 128.63,-1004.96"/>
<text text-anchor="start" x="139.63" y="-1026.16" font-family="Helvetica,sans-Serif" font-weight="bold" font-size="32.00" fill="#29235c">id</text>
<text text-anchor="start" x="164.52" y="-1026.16" font-family="Helvetica,sans-Serif" font-size="32.00" fill="#29235c"> &#160;&#160;&#160;</text>
<text text-anchor="start" x="631.96" y="-1026.16" font-family="Helvetica,sans-Serif" font-style="italic" font-size="32.00" fill="#29235c">text</text>
<text text-anchor="start" x="683.54" y="-1026.16" font-family="Helvetica,sans-Serif" font-size="32.00" fill="#29235c"> </text>
<text text-anchor="start" x="692.43" y="-1026.16" font-family="Helvetica,sans-Serif" font-weight="bold" font-size="32.00" fill="#29235c">(!)</text>
<polygon fill="#e7e2dd" stroke="transparent" points="128.63,-944.96 128.63,-1004.96 733.63,-1004.96 733.63,-944.96 128.63,-944.96"/>
<polygon fill="none" stroke="#29235c" points="128.63,-944.96 128.63,-1004.96 733.63,-1004.96 733.63,-944.96 128.63,-944.96"/>
<text text-anchor="start" x="139.63" y="-965.16" font-family="Helvetica,sans-Serif" font-size="32.00" fill="#29235c">user_id &#160;&#160;&#160;</text>
<text text-anchor="start" x="631.96" y="-966.16" font-family="Helvetica,sans-Serif" font-style="italic" font-size="32.00" fill="#29235c">text</text>
<text text-anchor="start" x="683.54" y="-966.16" font-family="Helvetica,sans-Serif" font-size="32.00" fill="#29235c"> </text>
<text text-anchor="start" x="692.43" y="-966.16" font-family="Helvetica,sans-Serif" font-weight="bold" font-size="32.00" fill="#29235c">(!)</text>
<polygon fill="#e7e2dd" stroke="transparent" points="128.63,-884.96 128.63,-944.96 733.63,-944.96 733.63,-884.96 128.63,-884.96"/>
<polygon fill="none" stroke="#29235c" points="128.63,-884.96 128.63,-944.96 733.63,-944.96 733.63,-884.96 128.63,-884.96"/>
<text text-anchor="start" x="139.55" y="-905.16" font-family="Helvetica,sans-Serif" font-size="32.00" fill="#29235c">expires_at &#160;&#160;&#160;</text>
<text text-anchor="start" x="322.62" y="-906.16" font-family="Helvetica,sans-Serif" font-style="italic" font-size="32.00" fill="#29235c">timestamp with time zone</text>
<text text-anchor="start" x="683.54" y="-906.16" font-family="Helvetica,sans-Serif" font-size="32.00" fill="#29235c"> </text>
<text text-anchor="start" x="692.44" y="-906.16" font-family="Helvetica,sans-Serif" font-weight="bold" font-size="32.00" fill="#29235c">(!)</text>
<polygon fill="none" stroke="#29235c" stroke-width="2" points="127.13,-883.96 127.13,-1125.96 734.13,-1125.96 734.13,-883.96 127.13,-883.96"/>
</g>
<!-- user -->
<g id="user" class="node">
<title>user</title>
<ellipse fill="none" stroke="black" stroke-width="0" cx="430.63" cy="-514.96" rx="265.33" ry="299.63"/>
<polygon fill="#1d71b8" stroke="transparent" points="245.63,-664.96 245.63,-724.96 616.63,-724.96 616.63,-664.96 245.63,-664.96"/>
<polygon fill="none" stroke="#29235c" points="245.63,-664.96 245.63,-724.96 616.63,-724.96 616.63,-664.96 245.63,-664.96"/>
<text text-anchor="start" x="337.76" y="-686.16" font-family="Helvetica,sans-Serif" font-weight="bold" font-size="32.00" fill="#ffffff"> &#160;&#160;&#160;&#160;&#160;&#160;user &#160;&#160;&#160;&#160;&#160;&#160;</text>
<polygon fill="#e7e2dd" stroke="transparent" points="245.63,-604.96 245.63,-664.96 616.63,-664.96 616.63,-604.96 245.63,-604.96"/>
<polygon fill="none" stroke="#29235c" points="245.63,-604.96 245.63,-664.96 616.63,-664.96 616.63,-604.96 245.63,-604.96"/>
<text text-anchor="start" x="256.63" y="-626.16" font-family="Helvetica,sans-Serif" font-weight="bold" font-size="32.00" fill="#29235c">id</text>
<text text-anchor="start" x="281.52" y="-626.16" font-family="Helvetica,sans-Serif" font-size="32.00" fill="#29235c"> &#160;&#160;&#160;</text>
<text text-anchor="start" x="514.96" y="-626.16" font-family="Helvetica,sans-Serif" font-style="italic" font-size="32.00" fill="#29235c">text</text>
<text text-anchor="start" x="566.54" y="-626.16" font-family="Helvetica,sans-Serif" font-size="32.00" fill="#29235c"> </text>
<text text-anchor="start" x="575.43" y="-626.16" font-family="Helvetica,sans-Serif" font-weight="bold" font-size="32.00" fill="#29235c">(!)</text>
<polygon fill="#e7e2dd" stroke="transparent" points="245.63,-544.96 245.63,-604.96 616.63,-604.96 616.63,-544.96 245.63,-544.96"/>
<polygon fill="none" stroke="#29235c" points="245.63,-544.96 245.63,-604.96 616.63,-604.96 616.63,-544.96 245.63,-544.96"/>
<text text-anchor="start" x="256.63" y="-565.16" font-family="Helvetica,sans-Serif" font-size="32.00" fill="#29235c">email &#160;&#160;&#160;</text>
<text text-anchor="start" x="514.96" y="-566.16" font-family="Helvetica,sans-Serif" font-style="italic" font-size="32.00" fill="#29235c">text</text>
<text text-anchor="start" x="566.54" y="-566.16" font-family="Helvetica,sans-Serif" font-size="32.00" fill="#29235c"> </text>
<text text-anchor="start" x="575.43" y="-566.16" font-family="Helvetica,sans-Serif" font-weight="bold" font-size="32.00" fill="#29235c">(!)</text>
<polygon fill="#e7e2dd" stroke="transparent" points="245.63,-484.96 245.63,-544.96 616.63,-544.96 616.63,-484.96 245.63,-484.96"/>
<polygon fill="none" stroke="#29235c" points="245.63,-484.96 245.63,-544.96 616.63,-544.96 616.63,-484.96 245.63,-484.96"/>
<text text-anchor="start" x="256.31" y="-505.16" font-family="Helvetica,sans-Serif" font-size="32.00" fill="#29235c">password_hash &#160;&#160;&#160;</text>
<text text-anchor="start" x="515.3" y="-506.16" font-family="Helvetica,sans-Serif" font-style="italic" font-size="32.00" fill="#29235c">text</text>
<text text-anchor="start" x="566.87" y="-506.16" font-family="Helvetica,sans-Serif" font-size="32.00" fill="#29235c"> </text>
<text text-anchor="start" x="575.76" y="-506.16" font-family="Helvetica,sans-Serif" font-weight="bold" font-size="32.00" fill="#29235c">(!)</text>
<polygon fill="#e7e2dd" stroke="transparent" points="245.63,-424.96 245.63,-484.96 616.63,-484.96 616.63,-424.96 245.63,-424.96"/>
<polygon fill="none" stroke="#29235c" points="245.63,-424.96 245.63,-484.96 616.63,-484.96 616.63,-424.96 245.63,-424.96"/>
<text text-anchor="start" x="256.63" y="-445.16" font-family="Helvetica,sans-Serif" font-size="32.00" fill="#29235c">name &#160;&#160;&#160;</text>
<text text-anchor="start" x="514.96" y="-446.16" font-family="Helvetica,sans-Serif" font-style="italic" font-size="32.00" fill="#29235c">text</text>
<text text-anchor="start" x="566.54" y="-446.16" font-family="Helvetica,sans-Serif" font-size="32.00" fill="#29235c"> </text>
<text text-anchor="start" x="575.43" y="-446.16" font-family="Helvetica,sans-Serif" font-weight="bold" font-size="32.00" fill="#29235c">(!)</text>
<polygon fill="#e7e2dd" stroke="transparent" points="245.63,-364.96 245.63,-424.96 616.63,-424.96 616.63,-364.96 245.63,-364.96"/>
<polygon fill="none" stroke="#29235c" points="245.63,-364.96 245.63,-424.96 616.63,-424.96 616.63,-364.96 245.63,-364.96"/>
<text text-anchor="start" x="256.63" y="-385.16" font-family="Helvetica,sans-Serif" font-size="32.00" fill="#29235c">lastname &#160;&#160;&#160;</text>
<text text-anchor="start" x="514.96" y="-386.16" font-family="Helvetica,sans-Serif" font-style="italic" font-size="32.00" fill="#29235c">text</text>
<text text-anchor="start" x="566.54" y="-386.16" font-family="Helvetica,sans-Serif" font-size="32.00" fill="#29235c"> </text>
<text text-anchor="start" x="575.43" y="-386.16" font-family="Helvetica,sans-Serif" font-weight="bold" font-size="32.00" fill="#29235c">(!)</text>
<polygon fill="#e7e2dd" stroke="transparent" points="245.63,-304.96 245.63,-364.96 616.63,-364.96 616.63,-304.96 245.63,-304.96"/>
<polygon fill="none" stroke="#29235c" points="245.63,-304.96 245.63,-364.96 616.63,-364.96 616.63,-304.96 245.63,-304.96"/>
<text text-anchor="start" x="256.63" y="-325.16" font-family="Helvetica,sans-Serif" font-size="32.00" fill="#29235c">role &#160;&#160;&#160;</text>
<text text-anchor="start" x="433.19" y="-326.16" font-family="Helvetica,sans-Serif" font-style="italic" font-size="32.00" fill="#29235c">user_role</text>
<text text-anchor="start" x="566.54" y="-326.16" font-family="Helvetica,sans-Serif" font-size="32.00" fill="#29235c"> </text>
<text text-anchor="start" x="575.43" y="-326.16" font-family="Helvetica,sans-Serif" font-weight="bold" font-size="32.00" fill="#29235c">(!)</text>
<polygon fill="none" stroke="#29235c" stroke-width="2" points="244.13,-303.96 244.13,-725.96 617.13,-725.96 617.13,-303.96 244.13,-303.96"/>
</g>
<!-- user&#45;&gt;user_role -->
<g id="edge1" class="edge">
<title>user:e&#45;&gt;user_role:w</title>
<path fill="none" stroke="#29235c" stroke-width="3" d="M617.63,-334.96C769.05,-334.96 806.9,-334.96 958.32,-334.96"/>
</g>
</g>
</svg>
