<?xml version="1.0" encoding="UTF-8" standalone="no"?>
<!DOCTYPE svg PUBLIC "-//W3C//DTD SVG 1.1//EN"
 "http://www.w3.org/Graphics/SVG/1.1/DTD/svg11.dtd">
<!-- Generated by graphviz version 2.47.0 (20210316.0004)
 -->
<!-- Title: dbml Pages: 1 -->
<svg width="1882pt" height="823pt"
 viewBox="0.00 0.00 1881.71 822.77" xmlns="http://www.w3.org/2000/svg" xmlns:xlink="http://www.w3.org/1999/xlink">
<g id="graph0" class="graph" transform="scale(1 1) rotate(0) translate(4 818.77)">
<title>dbml</title>
<!-- user_role -->
<g id="user_role" class="node">
<title>user_role</title>
<ellipse fill="none" stroke="black" stroke-width="0" cx="1668.65" cy="-214.96" rx="205.12" ry="214.92"/>
<polygon fill="#29235c" stroke="transparent" points="1525.65,-304.96 1525.65,-364.96 1811.65,-364.96 1811.65,-304.96 1525.65,-304.96"/>
<polygon fill="none" stroke="#29235c" points="1525.65,-304.96 1525.65,-364.96 1811.65,-364.96 1811.65,-304.96 1525.65,-304.96"/>
<text text-anchor="start" x="1539.72" y="-326.16" font-family="Helvetica,sans-Serif" font-weight="bold" font-size="32.00" fill="#ffffff"> &#160;&#160;&#160;&#160;&#160;&#160;user_role &#160;&#160;&#160;&#160;&#160;&#160;</text>
<polygon fill="#e7e2dd" stroke="transparent" points="1525.65,-244.96 1525.65,-304.96 1811.65,-304.96 1811.65,-244.96 1525.65,-244.96"/>
<polygon fill="none" stroke="#29235c" points="1525.65,-244.96 1525.65,-304.96 1811.65,-304.96 1811.65,-244.96 1525.65,-244.96"/>
<text text-anchor="start" x="1536.18" y="-266.16" font-family="Helvetica,sans-Serif" font-style="italic" font-size="32.00" fill="#1d71b8"> &#160;&#160;&#160;administrador &#160;&#160;&#160;</text>
<polygon fill="#e7e2dd" stroke="transparent" points="1525.65,-184.96 1525.65,-244.96 1811.65,-244.96 1811.65,-184.96 1525.65,-184.96"/>
<polygon fill="none" stroke="#29235c" points="1525.65,-184.96 1525.65,-244.96 1811.65,-244.96 1811.65,-184.96 1525.65,-184.96"/>
<text text-anchor="start" x="1556.61" y="-206.16" font-family="Helvetica,sans-Serif" font-style="italic" font-size="32.00" fill="#1d71b8"> &#160;&#160;&#160;bioanalista &#160;&#160;&#160;</text>
<polygon fill="#e7e2dd" stroke="transparent" points="1525.65,-124.96 1525.65,-184.96 1811.65,-184.96 1811.65,-124.96 1525.65,-124.96"/>
<polygon fill="none" stroke="#29235c" points="1525.65,-124.96 1525.65,-184.96 1811.65,-184.96 1811.65,-124.96 1525.65,-124.96"/>
<text text-anchor="start" x="1582.42" y="-146.16" font-family="Helvetica,sans-Serif" font-style="italic" font-size="32.00" fill="#1d71b8"> &#160;&#160;&#160;auxiliar &#160;&#160;&#160;</text>
<polygon fill="#e7e2dd" stroke="transparent" points="1525.65,-64.96 1525.65,-124.96 1811.65,-124.96 1811.65,-64.96 1525.65,-64.96"/>
<polygon fill="none" stroke="#29235c" points="1525.65,-64.96 1525.65,-124.96 1811.65,-124.96 1811.65,-64.96 1525.65,-64.96"/>
<text text-anchor="start" x="1562.85" y="-86.16" font-family="Helvetica,sans-Serif" font-style="italic" font-size="32.00" fill="#1d71b8"> &#160;&#160;&#160;secretaria &#160;&#160;&#160;</text>
<polygon fill="none" stroke="#29235c" stroke-width="2" points="1524.65,-63.96 1524.65,-365.96 1812.65,-365.96 1812.65,-63.96 1524.65,-63.96"/>
</g>
<!-- session -->
<g id="session" class="node">
<title>session</title>
<ellipse fill="none" stroke="black" stroke-width="0" cx="430.63" cy="-604.96" rx="430.76" ry="172.57"/>
<polygon fill="#1d71b8" stroke="transparent" points="128.63,-664.96 128.63,-724.96 733.63,-724.96 733.63,-664.96 128.63,-664.96"/>
<polygon fill="none" stroke="#29235c" points="128.63,-664.96 128.63,-724.96 733.63,-724.96 733.63,-664.96 128.63,-664.96"/>
<text text-anchor="start" x="314.64" y="-686.16" font-family="Helvetica,sans-Serif" font-weight="bold" font-size="32.00" fill="#ffffff"> &#160;&#160;&#160;&#160;&#160;&#160;session &#160;&#160;&#160;&#160;&#160;&#160;</text>
<polygon fill="#e7e2dd" stroke="transparent" points="128.63,-604.96 128.63,-664.96 733.63,-664.96 733.63,-604.96 128.63,-604.96"/>
<polygon fill="none" stroke="#29235c" points="128.63,-604.96 128.63,-664.96 733.63,-664.96 733.63,-604.96 128.63,-604.96"/>
<text text-anchor="start" x="139.63" y="-626.16" font-family="Helvetica,sans-Serif" font-weight="bold" font-size="32.00" fill="#29235c">id</text>
<text text-anchor="start" x="164.52" y="-626.16" font-family="Helvetica,sans-Serif" font-size="32.00" fill="#29235c"> &#160;&#160;&#160;</text>
<text text-anchor="start" x="631.96" y="-626.16" font-family="Helvetica,sans-Serif" font-style="italic" font-size="32.00" fill="#29235c">text</text>
<text text-anchor="start" x="683.54" y="-626.16" font-family="Helvetica,sans-Serif" font-size="32.00" fill="#29235c"> </text>
<text text-anchor="start" x="692.43" y="-626.16" font-family="Helvetica,sans-Serif" font-weight="bold" font-size="32.00" fill="#29235c">(!)</text>
<polygon fill="#e7e2dd" stroke="transparent" points="128.63,-544.96 128.63,-604.96 733.63,-604.96 733.63,-544.96 128.63,-544.96"/>
<polygon fill="none" stroke="#29235c" points="128.63,-544.96 128.63,-604.96 733.63,-604.96 733.63,-544.96 128.63,-544.96"/>
<text text-anchor="start" x="139.63" y="-565.16" font-family="Helvetica,sans-Serif" font-size="32.00" fill="#29235c">user_id &#160;&#160;&#160;</text>
<text text-anchor="start" x="631.96" y="-566.16" font-family="Helvetica,sans-Serif" font-style="italic" font-size="32.00" fill="#29235c">text</text>
<text text-anchor="start" x="683.54" y="-566.16" font-family="Helvetica,sans-Serif" font-size="32.00" fill="#29235c"> </text>
<text text-anchor="start" x="692.43" y="-566.16" font-family="Helvetica,sans-Serif" font-weight="bold" font-size="32.00" fill="#29235c">(!)</text>
<polygon fill="#e7e2dd" stroke="transparent" points="128.63,-484.96 128.63,-544.96 733.63,-544.96 733.63,-484.96 128.63,-484.96"/>
<polygon fill="none" stroke="#29235c" points="128.63,-484.96 128.63,-544.96 733.63,-544.96 733.63,-484.96 128.63,-484.96"/>
<text text-anchor="start" x="139.55" y="-505.16" font-family="Helvetica,sans-Serif" font-size="32.00" fill="#29235c">expires_at &#160;&#160;&#160;</text>
<text text-anchor="start" x="322.62" y="-506.16" font-family="Helvetica,sans-Serif" font-style="italic" font-size="32.00" fill="#29235c">timestamp with time zone</text>
<text text-anchor="start" x="683.54" y="-506.16" font-family="Helvetica,sans-Serif" font-size="32.00" fill="#29235c"> </text>
<text text-anchor="start" x="692.44" y="-506.16" font-family="Helvetica,sans-Serif" font-weight="bold" font-size="32.00" fill="#29235c">(!)</text>
<polygon fill="none" stroke="#29235c" stroke-width="2" points="127.13,-483.96 127.13,-725.96 734.13,-725.96 734.13,-483.96 127.13,-483.96"/>
</g>
<!-- user -->
<g id="user" class="node">
<title>user</title>
<ellipse fill="none" stroke="black" stroke-width="0" cx="1162.42" cy="-514.96" rx="265.33" ry="299.63"/>
<polygon fill="#1d71b8" stroke="transparent" points="977.42,-664.96 977.42,-724.96 1348.42,-724.96 1348.42,-664.96 977.42,-664.96"/>
<polygon fill="none" stroke="#29235c" points="977.42,-664.96 977.42,-724.96 1348.42,-724.96 1348.42,-664.96 977.42,-664.96"/>
<text text-anchor="start" x="1069.56" y="-686.16" font-family="Helvetica,sans-Serif" font-weight="bold" font-size="32.00" fill="#ffffff"> &#160;&#160;&#160;&#160;&#160;&#160;user &#160;&#160;&#160;&#160;&#160;&#160;</text>
<polygon fill="#e7e2dd" stroke="transparent" points="977.42,-604.96 977.42,-664.96 1348.42,-664.96 1348.42,-604.96 977.42,-604.96"/>
<polygon fill="none" stroke="#29235c" points="977.42,-604.96 977.42,-664.96 1348.42,-664.96 1348.42,-604.96 977.42,-604.96"/>
<text text-anchor="start" x="988.42" y="-626.16" font-family="Helvetica,sans-Serif" font-weight="bold" font-size="32.00" fill="#29235c">id</text>
<text text-anchor="start" x="1013.31" y="-626.16" font-family="Helvetica,sans-Serif" font-size="32.00" fill="#29235c"> &#160;&#160;&#160;</text>
<text text-anchor="start" x="1246.76" y="-626.16" font-family="Helvetica,sans-Serif" font-style="italic" font-size="32.00" fill="#29235c">text</text>
<text text-anchor="start" x="1298.33" y="-626.16" font-family="Helvetica,sans-Serif" font-size="32.00" fill="#29235c"> </text>
<text text-anchor="start" x="1307.22" y="-626.16" font-family="Helvetica,sans-Serif" font-weight="bold" font-size="32.00" fill="#29235c">(!)</text>
<polygon fill="#e7e2dd" stroke="transparent" points="977.42,-544.96 977.42,-604.96 1348.42,-604.96 1348.42,-544.96 977.42,-544.96"/>
<polygon fill="none" stroke="#29235c" points="977.42,-544.96 977.42,-604.96 1348.42,-604.96 1348.42,-544.96 977.42,-544.96"/>
<text text-anchor="start" x="988.42" y="-565.16" font-family="Helvetica,sans-Serif" font-size="32.00" fill="#29235c">email &#160;&#160;&#160;</text>
<text text-anchor="start" x="1246.76" y="-566.16" font-family="Helvetica,sans-Serif" font-style="italic" font-size="32.00" fill="#29235c">text</text>
<text text-anchor="start" x="1298.33" y="-566.16" font-family="Helvetica,sans-Serif" font-size="32.00" fill="#29235c"> </text>
<text text-anchor="start" x="1307.22" y="-566.16" font-family="Helvetica,sans-Serif" font-weight="bold" font-size="32.00" fill="#29235c">(!)</text>
<polygon fill="#e7e2dd" stroke="transparent" points="977.42,-484.96 977.42,-544.96 1348.42,-544.96 1348.42,-484.96 977.42,-484.96"/>
<polygon fill="none" stroke="#29235c" points="977.42,-484.96 977.42,-544.96 1348.42,-544.96 1348.42,-484.96 977.42,-484.96"/>
<text text-anchor="start" x="988.1" y="-505.16" font-family="Helvetica,sans-Serif" font-size="32.00" fill="#29235c">password_hash &#160;&#160;&#160;</text>
<text text-anchor="start" x="1247.09" y="-506.16" font-family="Helvetica,sans-Serif" font-style="italic" font-size="32.00" fill="#29235c">text</text>
<text text-anchor="start" x="1298.66" y="-506.16" font-family="Helvetica,sans-Serif" font-size="32.00" fill="#29235c"> </text>
<text text-anchor="start" x="1307.56" y="-506.16" font-family="Helvetica,sans-Serif" font-weight="bold" font-size="32.00" fill="#29235c">(!)</text>
<polygon fill="#e7e2dd" stroke="transparent" points="977.42,-424.96 977.42,-484.96 1348.42,-484.96 1348.42,-424.96 977.42,-424.96"/>
<polygon fill="none" stroke="#29235c" points="977.42,-424.96 977.42,-484.96 1348.42,-484.96 1348.42,-424.96 977.42,-424.96"/>
<text text-anchor="start" x="988.42" y="-445.16" font-family="Helvetica,sans-Serif" font-size="32.00" fill="#29235c">name &#160;&#160;&#160;</text>
<text text-anchor="start" x="1246.76" y="-446.16" font-family="Helvetica,sans-Serif" font-style="italic" font-size="32.00" fill="#29235c">text</text>
<text text-anchor="start" x="1298.33" y="-446.16" font-family="Helvetica,sans-Serif" font-size="32.00" fill="#29235c"> </text>
<text text-anchor="start" x="1307.22" y="-446.16" font-family="Helvetica,sans-Serif" font-weight="bold" font-size="32.00" fill="#29235c">(!)</text>
<polygon fill="#e7e2dd" stroke="transparent" points="977.42,-364.96 977.42,-424.96 1348.42,-424.96 1348.42,-364.96 977.42,-364.96"/>
<polygon fill="none" stroke="#29235c" points="977.42,-364.96 977.42,-424.96 1348.42,-424.96 1348.42,-364.96 977.42,-364.96"/>
<text text-anchor="start" x="988.42" y="-385.16" font-family="Helvetica,sans-Serif" font-size="32.00" fill="#29235c">lastname &#160;&#160;&#160;</text>
<text text-anchor="start" x="1246.76" y="-386.16" font-family="Helvetica,sans-Serif" font-style="italic" font-size="32.00" fill="#29235c">text</text>
<text text-anchor="start" x="1298.33" y="-386.16" font-family="Helvetica,sans-Serif" font-size="32.00" fill="#29235c"> </text>
<text text-anchor="start" x="1307.22" y="-386.16" font-family="Helvetica,sans-Serif" font-weight="bold" font-size="32.00" fill="#29235c">(!)</text>
<polygon fill="#e7e2dd" stroke="transparent" points="977.42,-304.96 977.42,-364.96 1348.42,-364.96 1348.42,-304.96 977.42,-304.96"/>
<polygon fill="none" stroke="#29235c" points="977.42,-304.96 977.42,-364.96 1348.42,-364.96 1348.42,-304.96 977.42,-304.96"/>
<text text-anchor="start" x="988.42" y="-325.16" font-family="Helvetica,sans-Serif" font-size="32.00" fill="#29235c">role &#160;&#160;&#160;</text>
<text text-anchor="start" x="1164.98" y="-326.16" font-family="Helvetica,sans-Serif" font-style="italic" font-size="32.00" fill="#29235c">user_role</text>
<text text-anchor="start" x="1298.33" y="-326.16" font-family="Helvetica,sans-Serif" font-size="32.00" fill="#29235c"> </text>
<text text-anchor="start" x="1307.22" y="-326.16" font-family="Helvetica,sans-Serif" font-weight="bold" font-size="32.00" fill="#29235c">(!)</text>
<polygon fill="none" stroke="#29235c" stroke-width="2" points="975.92,-303.96 975.92,-725.96 1348.92,-725.96 1348.92,-303.96 975.92,-303.96"/>
</g>
<!-- session&#45;&gt;user -->
<!-- session&#45;&gt;user -->
<g id="edge2" class="edge">
<title>session:e&#45;&gt;user:w</title>
<path fill="none" stroke="#29235c" stroke-width="3" d="M734.63,-574.96C841.89,-574.96 864.34,-631.27 966.3,-634.79"/>
<polygon fill="#29235c" stroke="#29235c" stroke-width="3" points="966.36,-638.29 976.42,-634.96 966.48,-631.29 966.36,-638.29"/>
<text text-anchor="middle" x="967.53" y="-644.56" font-family="Helvetica,sans-Serif" font-size="32.00" fill="#29235c">1</text>
<text text-anchor="middle" x="728.41" y="-584.56" font-family="Helvetica,sans-Serif" font-size="32.00" fill="#29235c">*</text>
</g>
<!-- user&#45;&gt;user_role -->
<g id="edge3" class="edge">
<title>user:e&#45;&gt;user_role:w</title>
<path fill="none" stroke="#29235c" stroke-width="3" d="M1349.42,-334.96C1427.3,-334.96 1446.77,-334.96 1524.65,-334.96"/>
</g>
</g>
</svg>
